<?xml version="1.0" encoding="UTF-8"?>
<svg version="1.1" xmlns="http://www.w3.org/2000/svg" width="638" height="456">
<path d="M0 0 C12.3475478 -0.02355628 24.69508994 -0.04112887 37.04265594 -0.05181217 C42.78104974 -0.05694914 48.51942778 -0.06387097 54.2578125 -0.07543945 C82.8556333 -0.13160152 111.41560428 0.08564965 140 1 C139.30762359 8.68573512 137.84634562 16.1083176 136.25610352 23.65454102 C135.97313419 25.01225491 135.69053129 26.37004522 135.40826416 27.72790527 C134.645506 31.39182191 133.87754787 35.05463051 133.10852551 38.71723676 C132.30184009 42.56325189 131.49971452 46.41021805 130.69700623 50.25706482 C129.34892991 56.71420728 127.99767909 63.17067868 126.64428711 69.62670898 C125.08272971 77.07582746 123.52516253 84.52577092 121.96996552 91.97621971 C120.30945259 99.93117043 118.64651682 107.88561304 116.9826076 115.839854 C116.50531265 118.12218115 116.02841113 120.40459024 115.55157661 122.68701363 C114.80043677 126.28165706 114.04762919 129.8759475 113.29356384 133.46997833 C112.8873886 135.40760222 112.482722 137.34554217 112.07810974 139.28349304 C111.8327951 140.45105133 111.58748047 141.61860962 111.33473206 142.82154846 C111.12401849 143.82751855 110.91330492 144.83348864 110.69620609 145.86994267 C109.86738859 149.59620468 108.92583721 153.29665117 108 157 C174.66 157 241.32 157 310 157 C310 167.56 310 178.12 310 189 C303.9053125 188.9690625 303.9053125 188.9690625 297.6875 188.9375 C232.47094538 188.88495141 159.71396189 190.45827952 110.52099609 239.40869141 C77.44573711 274.01295113 67.58657507 325.13424933 63 371 C14.82 371 -33.36 371 -83 371 C-78.40577142 348.02885709 -78.40577142 348.02885709 -76.52758789 339.76098633 C-76.30959408 338.79197702 -76.09160027 337.82296772 -75.86700058 336.8245945 C-75.15447472 333.65989344 -74.43857901 330.49596542 -73.72265625 327.33203125 C-73.20271755 325.02568927 -72.68300497 322.7192963 -72.16349792 320.41285706 C-71.04978557 315.47038174 -69.93460609 310.52824072 -68.8182373 305.58636475 C-67.0264922 297.65463343 -65.23804901 289.72216001 -63.45019531 281.78955078 C-62.83128484 279.04363641 -62.21235362 276.29772672 -61.59341431 273.55181885 C-61.43871552 272.86549016 -61.28401673 272.17916146 -61.12463009 271.47203493 C-60.01334454 266.54196085 -58.90158527 261.61199372 -57.78964233 256.68206787 C-53.37626586 237.11411206 -48.97187235 217.54415135 -44.57421875 197.97265625 C-44.42234824 197.2967853 -44.27047773 196.62091434 -44.11400509 195.92456245 C-42.73733448 189.79794902 -41.36074928 183.67131639 -39.98427582 177.54465866 C-36.66904083 162.78863116 -33.3526401 148.03286582 -30.03515625 133.27734375 C-29.8884464 132.62480433 -29.74173655 131.9722649 -29.59058094 131.29995155 C-19.74923173 87.52830507 -9.87691921 43.76363209 0 0 Z " fill="#FDFDFD" transform="translate(83,0)"/>
<path d="M0 0 C0.66 0 1.32 0 2 0 C2.57914154 1.16050369 3.15828308 2.32100739 3.75497437 3.51667786 C9.25354726 14.53422876 14.75431361 25.55068216 20.25714684 36.56610584 C23.08510578 42.22720886 25.91233083 47.88867574 28.73779297 53.55102539 C31.47222314 59.03087177 34.2086929 64.5096954 36.94649124 69.98785973 C37.98280926 72.06232204 39.01843171 74.137132 40.05329514 76.21232033 C45.85664439 87.84838311 51.75625301 99.4214395 57.84213257 110.91233826 C60.41096046 115.76569358 62.90097599 120.65628374 65.3515625 125.5703125 C65.78133392 126.42889862 66.21110535 127.28748474 66.65390015 128.17208862 C67.53668421 129.93699049 68.4185051 131.70237448 69.29931641 133.46826172 C70.6561387 136.18740357 72.01737029 138.90430956 73.37890625 141.62109375 C74.24504906 143.35403804 75.11094464 145.08710593 75.9765625 146.8203125 C76.38266754 147.63049835 76.78877258 148.4406842 77.20718384 149.27542114 C80 154.88496679 80 154.88496679 80 156 C-26.92 156 -133.84 156 -244 156 C-242.72764471 147.7296906 -241.40608564 139.55426398 -239.7578125 131.36328125 C-239.54816864 130.3177861 -239.33852478 129.27229095 -239.12252808 128.19511414 C-238.68220312 126.00757704 -238.24014117 123.8203889 -237.79638672 121.63354492 C-237.12479126 118.31146746 -236.46664174 114.98689316 -235.80859375 111.66210938 C-235.37582668 109.5206661 -234.94226017 107.3793842 -234.5078125 105.23828125 C-234.31599396 104.25886063 -234.12417542 103.27944 -233.92654419 102.27033997 C-231.47190968 90.36448725 -227.71719149 80.2458929 -217.31640625 73.17578125 C-207.97413834 67.82438507 -199.50826313 66.69582299 -188.9152832 66.39331055 C-187.13068947 66.33176788 -187.13068947 66.33176788 -185.31004333 66.26898193 C-182.06609325 66.15797079 -178.82199461 66.05419864 -175.5777514 65.95222449 C-172.16424708 65.84191002 -168.751235 65.71826529 -165.33818054 65.59492493 C-153.73270416 65.17765629 -142.12677426 64.77620376 -130.51977539 64.40356445 C-124.09848891 64.19727255 -117.67798048 63.97455696 -111.25787419 63.73426658 C-107.87026432 63.60822429 -104.48283833 63.49052059 -101.09426308 63.39349937 C-97.30568745 63.28142449 -93.51907832 63.14114102 -89.73168945 62.99487305 C-88.63150482 62.96923782 -87.53132019 62.9436026 -86.39779663 62.91719055 C-75.26229251 62.42862303 -65.33839787 58.44848973 -56.0625 52.375 C-55.39484619 51.94606445 -54.72719238 51.51712891 -54.03930664 51.07519531 C-38.47281599 40.89774303 -23.81017359 28.39523304 -12 14 C-10.45508881 12.14824486 -8.90402762 10.30204322 -7.34643555 8.4609375 C-6.25347941 7.16901348 -5.16623792 5.87222985 -4.08520508 4.5703125 C-2.76677658 3.00924543 -1.38795857 1.49958498 0 0 Z " fill="#FDFDFD" transform="translate(471,213)"/>
<path d="M0 0 C1.22914434 -0.00583211 2.45828869 -0.01166423 3.72467983 -0.01767308 C7.13545248 -0.02778853 10.54417514 -0.01096552 13.95471978 0.01720345 C17.63496512 0.04105902 21.31512831 0.03025833 24.99542236 0.02371216 C32.21299884 0.01629263 39.43013857 0.04068281 46.647622 0.0753131 C55.0814531 0.11438353 63.51520981 0.12021489 71.94911848 0.1242932 C87.03590721 0.13255537 102.12250289 0.16834102 117.209198 0.22068787 C131.77755843 0.27118964 146.34583611 0.30679533 160.91427612 0.32322693 C161.80719404 0.32423787 162.70011196 0.3252488 163.620088 0.32629038 C167.21164061 0.33031242 170.80319329 0.3342748 174.39474607 0.33814684 C190.03770597 0.35532242 205.68064983 0.38358946 221.3235876 0.41468605 C222.99747845 0.41799946 224.6713694 0.42126284 226.34526044 0.42447582 C236.7605876 0.44448016 247.17587254 0.47016992 257.59115982 0.50538826 C260.47261444 0.51499256 263.35406199 0.52266293 266.23552704 0.52830124 C287.17824221 0.57103042 308.0872755 1.04369012 329.01730347 1.72825623 C328.05647523 2.85450364 327.09490091 3.98011457 326.13300991 5.10545444 C325.59761292 5.73234686 325.06221593 6.35923928 324.51059479 7.00512844 C322.93682603 8.82112016 321.30930595 10.55123275 319.60153198 12.24168396 C318.70513756 13.13312355 318.70513756 13.13312355 317.79063416 14.04257202 C317.16547409 14.65943375 316.54031403 15.27629547 315.89620972 15.91184998 C315.23322372 16.57104935 314.57023773 17.23024872 313.88716125 17.90942383 C311.08206281 20.69834968 308.27100666 23.48124133 305.4604187 26.26463318 C303.39523168 28.31158455 301.33317026 30.36164928 299.27120972 32.41184998 C298.64807388 33.02668747 298.02493805 33.64152496 297.38291931 34.2749939 C294.37840102 37.26299181 291.49210845 40.29417552 288.7338562 43.51170349 C284.64350544 48.24475696 280.22764589 52.63127961 275.78694153 57.03378296 C274.2613637 58.54637954 272.73912261 60.06226824 271.21762085 61.57896423 C267.44113364 65.34221424 263.65916836 69.0999429 259.87734985 72.85783386 C256.66970479 76.0456129 253.46421052 79.23552665 250.26142883 82.42819214 C248.77526658 83.90796179 247.28608351 85.38464188 245.79672241 86.8611908 C241.9225491 90.7214215 238.08672948 94.56598251 234.52609253 98.71946716 C230.48029909 103.43737281 226.07605805 107.78210782 221.66468048 112.15604401 C220.12341202 113.68435755 218.5854574 115.21594093 217.04824829 116.74833679 C213.79076598 119.99449597 210.52932715 123.23666149 207.26730347 126.47825623 C203.46966419 130.25222379 199.67370262 134.02784867 195.88191986 137.80770111 C194.37117005 139.31199956 192.85742852 140.81324179 191.34353638 142.31437683 C190.42538147 143.22922852 189.50722656 144.1440802 188.56124878 145.08665466 C187.7540741 145.88859253 186.94689941 146.6905304 186.11526489 147.51676941 C183.99098057 149.65874884 183.99098057 149.65874884 182.35830688 152.01835632 C181.91577576 152.58262329 181.47324463 153.14689026 181.01730347 153.72825623 C180.35730347 153.72825623 179.69730347 153.72825623 179.01730347 153.72825623 C178.92026123 152.8088324 178.92026123 152.8088324 178.82125854 151.87083435 C176.32769628 128.9771502 172.09678387 105.4920833 153.60324097 89.66184998 C137.25741014 77.64896161 119.60279787 75.12410524 99.95504761 75.18235779 C97.98240857 75.17360422 96.00977661 75.16311228 94.03715515 75.15103149 C88.72823794 75.12336936 83.41955469 75.11976241 78.11057591 75.12075138 C72.54520742 75.11760515 66.97994168 75.09195158 61.41462708 75.06877136 C50.89658563 75.02833824 40.37860598 75.00790057 29.86049885 74.99479747 C17.87725244 74.9788843 5.89411056 74.94045061 -6.08907497 74.90020418 C-30.720247 74.81797898 -55.35141597 74.76377846 -79.98269653 74.72825623 C-78.18737545 70.84875907 -75.88202599 68.45864328 -72.79519653 65.47825623 C-69.54734025 62.30623768 -66.36527067 59.12516149 -63.42019653 55.66575623 C-59.96084354 51.60910488 -56.18356433 47.91463391 -52.39285278 44.16966248 C-49.71415121 41.45622896 -47.23661535 38.620486 -44.76004028 35.72434998 C-42.03170368 32.6602181 -39.08601745 29.82343791 -36.16629028 26.94309998 C-34.20294982 24.95166162 -32.36189984 22.91523045 -30.54519653 20.79075623 C-27.05014679 16.70912471 -23.25932118 12.9690566 -19.41238403 9.22044373 C-16.86122731 6.78795229 -16.86122731 6.78795229 -15.0797596 3.61801052 C-11.18113026 -1.02890055 -5.61320899 -0.08182097 0 0 Z " fill="#FDFDFD" transform="translate(308.9826965332031,0.2717437744140625)"/>
<path d="M0 0 C2.20770805 -0.08165496 4.41630425 -0.13948488 6.625 -0.1875 C7.85476563 -0.22230469 9.08453125 -0.25710938 10.3515625 -0.29296875 C14.4603256 0.03696405 16.65964345 0.57415029 20 3 C21.22862241 5.68090182 22.03309876 7.87920701 22.75 10.6875 C23.04197266 11.71133789 23.04197266 11.71133789 23.33984375 12.75585938 C23.92360401 14.83036312 24.4650964 16.91241713 25 19 C25.19271484 19.71365723 25.38542969 20.42731445 25.58398438 21.16259766 C26.49002843 24.59205387 27 27.42623126 27 31 C27.66 31 28.32 31 29 31 C29.103125 29.91589844 29.20625 28.83179688 29.3125 27.71484375 C30.00422884 22.18953786 31.50382567 16.91555767 33 11.5625 C33.27328125 10.55767578 33.5465625 9.55285156 33.828125 8.51757812 C35.86458333 1.13541667 35.86458333 1.13541667 37 0 C39.08043713 -0.12635423 41.16576212 -0.17581705 43.25 -0.1875 C44.38953125 -0.20167969 45.5290625 -0.21585937 46.703125 -0.23046875 C49.99334985 -0.00046488 52.13223803 0.38815506 55 2 C57.31090733 5.46327842 57.39001433 8.8187027 57.6328125 12.90625 C57.67446533 13.57987076 57.71611816 14.25349152 57.7590332 14.94752502 C57.89062878 17.131244 58.00848395 19.31542851 58.125 21.5 C58.21069863 22.99536569 58.29647359 24.49072701 58.38232422 25.98608398 C58.99190425 36.99603374 59.24116197 47.973539 59 59 C56.68756208 59.02685412 54.3750373 59.04632841 52.0625 59.0625 C50.77472656 59.07410156 49.48695313 59.08570313 48.16015625 59.09765625 C45 59 45 59 44 58 C43.85540295 56.5484394 43.77302889 55.09054714 43.71875 53.6328125 C43.66267578 52.30443359 43.66267578 52.30443359 43.60546875 50.94921875 C43.57066406 50.01722656 43.53585937 49.08523438 43.5 48.125 C43.43105461 46.29411697 43.35829824 44.46337244 43.28125 42.6328125 C43.25095703 41.81699707 43.22066406 41.00118164 43.18945312 40.16064453 C43.0682762 37.81790686 43.0682762 37.81790686 42 35 C39.69 42.92 37.38 50.84 35 59 C30.38 59 25.76 59 21 59 C18.23049233 51.10690315 16.0998919 43.09044645 14 35 C12.47080956 36.52919044 12.80305181 37.98353956 12.71875 40.11328125 C12.68136719 40.94923828 12.64398438 41.78519531 12.60546875 42.64648438 C12.57066406 43.52626953 12.53585937 44.40605469 12.5 45.3125 C12.4308297 47.03791468 12.35803846 48.76318882 12.28125 50.48828125 C12.23581055 51.64130737 12.23581055 51.64130737 12.18945312 52.81762695 C12 55 12 55 11 59 C6.05 59 1.1 59 -4 59 C-3.73435234 53.75703539 -3.46778304 48.51411864 -3.20043945 43.27124023 C-3.11003037 41.49586181 -3.01985272 39.72047157 -2.92993164 37.94506836 C-2.66929445 32.80076006 -2.40405011 27.65672592 -2.13214111 22.51300049 C-2.0440506 20.8377346 -1.95725845 19.16239994 -1.87176514 17.48699951 C-1.75064916 15.12520872 -1.62409243 12.76377022 -1.49609375 10.40234375 C-1.46089127 9.69606339 -1.42568878 8.98978302 -1.38941956 8.26210022 C-1.22305902 5.28768968 -0.94806815 2.84420446 0 0 Z " fill="#FCFCFC" transform="translate(481,396)"/>
<path d="M0 0 C5.63230421 5.37405446 8.73019341 11.22168486 9.125 19.09765625 C9.32032774 29.6442751 8.92647475 38.26956756 2.5390625 47.08203125 C-4.85227398 54.13739789 -12.78545452 55.02044394 -22.6640625 54.91796875 C-29.90207897 54.48751403 -35.36927733 52.4108632 -40.70703125 47.45703125 C-46.42205187 40.80682544 -47.4315686 33.5217209 -47.5234375 25.08203125 C-47.55244141 24.21707031 -47.58144531 23.35210937 -47.61132812 22.4609375 C-47.69652148 13.71878893 -44.84350193 6.66444354 -38.9140625 0.2109375 C-28.30495516 -9.15719628 -10.71019273 -8.76870361 0 0 Z M-29.2109375 11.70703125 C-32.89767318 17.68208563 -32.91844231 23.82320071 -32.2109375 30.70703125 C-30.74245608 34.89220329 -29.22701027 37.69899487 -25.2109375 39.70703125 C-20.68519033 40.8211942 -17.27037441 41.07979609 -12.8359375 39.51953125 C-9.16548066 36.98516819 -7.61453533 34.91782474 -6.2109375 30.70703125 C-5.56460022 23.5549384 -5.40424166 16.49286884 -10.2109375 10.70703125 C-15.69980484 7.13751198 -24.3729326 7.16223877 -29.2109375 11.70703125 Z " fill="#FCFCFC" transform="translate(374.2109375,401.29296875)"/>
<path d="M0 0 C1.66869141 -0.01836914 1.66869141 -0.01836914 3.37109375 -0.03710938 C12.53653774 -0.05330274 20.63199928 0.22292799 28 6.1875 C31.9338922 10.1213922 32.95574546 15.31980589 33.0390625 20.71875 C32.624052 27.27986833 30.69565634 31.0771273 26.375 36.0625 C25 37.1875 25 37.1875 23 37.1875 C25.85843661 43.24586786 28.94343997 48.8369595 32.86328125 54.27734375 C34 56.1875 34 56.1875 34 59.1875 C28.39 59.1875 22.78 59.1875 17 59.1875 C15.49480613 56.56535672 13.99568681 53.94005792 12.5 51.3125 C12.07074219 50.56613281 11.64148438 49.81976563 11.19921875 49.05078125 C10.79316406 48.33535156 10.38710938 47.61992187 9.96875 46.8828125 C9.59169922 46.22297363 9.21464844 45.56313477 8.82617188 44.88330078 C8 43.1875 8 43.1875 8 41.1875 C6.02 41.1875 4.04 41.1875 2 41.1875 C2 47.1275 2 53.0675 2 59.1875 C-2.95 59.1875 -7.9 59.1875 -13 59.1875 C-13.02255549 51.64251411 -13.04091769 44.09754069 -13.05181217 36.55252934 C-13.05703989 33.04941115 -13.0641355 29.54631715 -13.07543945 26.04321289 C-13.08834206 22.01969159 -13.09322912 17.99619586 -13.09765625 13.97265625 C-13.10539818 12.07737938 -13.10539818 12.07737938 -13.11329651 10.14381409 C-13.11337204 8.982686 -13.11344757 7.82155792 -13.11352539 6.62524414 C-13.11685631 5.0830294 -13.11685631 5.0830294 -13.12025452 3.50965881 C-12.82174123 -2.2547422 -4.38336738 0.00247089 0 0 Z M2 14.1875 C2 18.4775 2 22.7675 2 27.1875 C9.94305918 27.83016807 9.94305918 27.83016807 17 25.1875 C18.00674926 22.31430099 18.00674926 22.31430099 18 19.1875 C16.28784522 16.02001366 15.46264391 15.34171464 12 14.1875 C10.27204648 14.11947033 8.54164635 14.10254355 6.8125 14.125 C4.4303125 14.1559375 4.4303125 14.1559375 2 14.1875 Z " fill="#FCFCFC" transform="translate(604,395.8125)"/>
<path d="M0 0 C2.1796875 0.015625 2.1796875 0.015625 4.875 0.25 C6.20144531 0.35054688 6.20144531 0.35054688 7.5546875 0.453125 C10.35080479 1.07845475 11.28851239 1.73954466 13 4 C14.25497056 7.76491167 14.10661648 11.27206475 14.0625 15.1875 C14.041875 17.765625 14.02125 20.34375 14 23 C19.61 23 25.22 23 31 23 C31 15.41 31 7.82 31 0 C39.7 0 39.7 0 44 3 C46.64858708 8.53989125 46.27202542 14.26804369 46.23046875 20.26953125 C46.23001053 21.34627609 46.22955231 22.42302094 46.2290802 23.53239441 C46.22606766 25.79919543 46.21821134 28.06599457 46.20581055 30.33276367 C46.18747306 33.81761933 46.18530155 37.30221035 46.18554688 40.78710938 C46.18063445 42.98958565 46.17480734 45.19206011 46.16796875 47.39453125 C46.16685593 48.44236282 46.1657431 49.4901944 46.16459656 50.56977844 C46.15821671 51.53135361 46.15183685 52.49292877 46.14526367 53.48364258 C46.13954597 54.75888542 46.13954597 54.75888542 46.13371277 56.05989075 C46 58 46 58 45 59 C40.33154772 59.14426614 35.67134047 59.04208415 31 59 C31 51.74 31 44.48 31 37 C25.39 37 19.78 37 14 37 C14 44.26 14 51.52 14 59 C9.05 59 4.1 59 -1 59 C-1.02255549 51.45501411 -1.04091769 43.91004069 -1.05181217 36.36502934 C-1.05703989 32.86191115 -1.0641355 29.35881715 -1.07543945 25.85571289 C-1.08834206 21.83219159 -1.09322912 17.80869586 -1.09765625 13.78515625 C-1.10539818 11.88987938 -1.10539818 11.88987938 -1.11329651 9.95631409 C-1.11337204 8.795186 -1.11344757 7.63405792 -1.11352539 6.43774414 C-1.11685631 4.8955294 -1.11685631 4.8955294 -1.12025452 3.32215881 C-1 1 -1 1 0 0 Z " fill="#FDFDFD" transform="translate(208,396)"/>
<path d="M0 0 C3.95403662 0.26360244 5.65370756 0.86143155 8.75 3.25 C11.01954631 6.65431947 11.11549949 8.41524202 11.375 12.4375 C11.44976562 13.52417969 11.52453125 14.61085938 11.6015625 15.73046875 C11.67503906 16.97763672 11.67503906 16.97763672 11.75 18.25 C12.56984375 17.28578125 13.3896875 16.3215625 14.234375 15.328125 C15.32282799 14.0520077 16.4113746 12.77597023 17.5 11.5 C18.03882812 10.86578125 18.57765625 10.2315625 19.1328125 9.578125 C20.18858529 8.34209832 21.25257282 7.11303478 22.32519531 5.89160156 C23.47586509 4.565847 24.57481897 3.19531345 25.65625 1.8125 C28.76113297 -0.50457684 31.79712567 -0.18199382 35.5 0 C36.19738281 0.01804687 36.89476562 0.03609375 37.61328125 0.0546875 C39.32611539 0.10161446 41.03823824 0.17335395 42.75 0.25 C41.88391982 4.69683855 39.36722889 7.37118334 36.4375 10.6875 C34.98759975 12.35632559 33.53947823 14.02611949 32.10302734 15.70654297 C30.87310372 17.10957024 29.57438616 18.45153288 28.26953125 19.78515625 C27.76808594 20.59855469 27.26664063 21.41195313 26.75 22.25 C27.84749564 26.67211382 29.77050992 30.23947129 32.15625 34.09375 C32.81753906 35.17527344 33.47882812 36.25679688 34.16015625 37.37109375 C34.84980469 38.48613281 35.53945313 39.60117187 36.25 40.75 C37.62016229 42.96530913 38.98494574 45.18395609 40.34375 47.40625 C40.94896484 48.38400391 41.55417969 49.36175781 42.17773438 50.36914062 C43.76320627 53.27419783 44.80442477 56.08478664 45.75 59.25 C40.04388103 60.54156465 34.28679291 61.63965047 28.75 59.25 C22.94346852 53.58924489 18.92399844 45.65515735 15.75 38.25 C15.75 37.59 15.75 36.93 15.75 36.25 C15.09 36.25 14.43 36.25 13.75 36.25 C12.07871068 39.19381488 11.47268241 41.42383394 11.3359375 44.796875 C11.27792969 46.06337891 11.27792969 46.06337891 11.21875 47.35546875 C11.17234375 48.66451172 11.17234375 48.66451172 11.125 50 C11.06699219 51.33224609 11.06699219 51.33224609 11.0078125 52.69140625 C10.91379678 54.87727167 10.83081998 57.06360692 10.75 59.25 C5.8 59.25 0.85 59.25 -4.25 59.25 C-4.27255549 51.70501411 -4.29091769 44.16004069 -4.30181217 36.61502934 C-4.30703989 33.11191115 -4.3141355 29.60881715 -4.32543945 26.10571289 C-4.33834206 22.08219159 -4.34322912 18.05869586 -4.34765625 14.03515625 C-4.35539818 12.13987938 -4.35539818 12.13987938 -4.36329651 10.20631409 C-4.36337204 9.045186 -4.36344757 7.88405792 -4.36352539 6.68774414 C-4.36685631 5.1455294 -4.36685631 5.1455294 -4.37025452 3.57215881 C-4.18196818 -0.06371931 -3.73945783 0.2876506 0 0 Z " fill="#FCFCFC" transform="translate(4.25,395.75)"/>
<path d="M0 0 C5.24467794 -0.11820745 8.55989742 0.00551221 13 3 C15.1757569 7.08788397 15.27735219 10.76878316 15.34375 15.34765625 C15.3583728 16.04136826 15.37299561 16.73508026 15.38806152 17.44981384 C15.44998406 20.4000367 15.48990455 23.35046033 15.53173828 26.30102539 C15.56554669 28.4626208 15.61062735 30.6237831 15.65625 32.78515625 C15.67494141 34.07301025 15.69363281 35.36086426 15.71289062 36.68774414 C15.97860564 39.75318254 16.28027881 41.48852221 18 44 C20.84083641 45.42041821 22.85477278 45.31452272 26 45 C29.15472207 42.61264276 30.26155887 40.80680136 31 37 C31.15110957 34.16611169 31.25631534 31.35139452 31.31640625 28.515625 C31.33718735 27.70003113 31.35796844 26.88443726 31.37937927 26.04412842 C31.44461297 23.44616895 31.50363768 20.84811087 31.5625 18.25 C31.60571014 16.485667 31.64932522 14.72134387 31.69335938 12.95703125 C31.80026745 8.63812116 31.90160827 4.31911216 32 0 C37.24467794 -0.11820745 40.55989742 0.00551221 45 3 C47.16363542 7.06438638 47.25749548 10.65362846 47.265625 15.20703125 C47.26849518 16.23336922 47.26849518 16.23336922 47.27142334 17.28044128 C47.2727794 18.72350432 47.26912352 20.1665798 47.26074219 21.60961914 C47.25008353 23.79537039 47.260631 25.98029054 47.2734375 28.16601562 C47.28366914 37.76933936 47.26163076 46.12823561 41 54 C34.63910739 60.02610879 27.91818068 60.4647284 19.48046875 60.3046875 C13.61243169 59.79098729 9.2619008 58.38170487 5.15625 54.05859375 C1.71553674 49.65220861 -0.12942071 46.20319483 -0.11352539 40.52856445 C-0.11344986 39.62785721 -0.11337433 38.72714996 -0.11329651 37.79914856 C-0.10813522 36.83031235 -0.10297394 35.86147614 -0.09765625 34.86328125 C-0.0962413 33.86870407 -0.09482635 32.87412689 -0.09336853 31.84941101 C-0.08776761 28.67041018 -0.07521496 25.49147957 -0.0625 22.3125 C-0.05748512 20.15820414 -0.05292219 18.00390718 -0.04882812 15.84960938 C-0.03779788 10.56638226 -0.02105886 5.28319615 0 0 Z " fill="#FCFCFC" transform="translate(53,396)"/>
<path d="M0 0 C2.18187165 -0.00966499 4.36278493 -0.04065469 6.54443359 -0.07226562 C7.93635508 -0.07879971 9.32828332 -0.08404859 10.72021484 -0.08789062 C12.6194873 -0.10190918 12.6194873 -0.10190918 14.55712891 -0.11621094 C18.19443255 0.26539752 20.06514958 1.04340404 22.95458984 3.24023438 C23.95458984 5.24023438 23.95458984 5.24023438 23.95458984 14.24023438 C16.36458984 14.24023438 8.77458984 14.24023438 0.95458984 14.24023438 C0.95458984 16.88023437 0.95458984 19.52023437 0.95458984 22.24023438 C2.49179687 22.18802734 2.49179687 22.18802734 4.06005859 22.13476562 C5.4207192 22.10661403 6.78139765 22.07931534 8.14208984 22.05273438 C8.815625 22.02759766 9.48916016 22.00246094 10.18310547 21.9765625 C14.65210182 21.91116255 17.41077472 22.48393373 20.95458984 25.24023438 C21.95458984 27.24023438 21.95458984 27.24023438 21.95458984 36.24023438 C15.02458984 36.24023438 8.09458984 36.24023438 0.95458984 36.24023438 C0.95458984 39.21023438 0.95458984 42.18023437 0.95458984 45.24023438 C2.26814453 45.18222656 3.58169922 45.12421875 4.93505859 45.06445312 C6.67070008 45.0175439 8.40638008 44.97204498 10.14208984 44.92773438 C11.00640625 44.88583984 11.87072266 44.84394531 12.76123047 44.80078125 C17.26070826 44.71458436 19.30929213 44.76951784 23.04443359 47.49414062 C25.84588119 51.52157961 25.43302875 53.45584527 24.95458984 58.24023438 C23.95458984 59.24023438 23.95458984 59.24023438 20.3527832 59.35375977 C18.74999128 59.35360062 17.14719424 59.34790501 15.54443359 59.33789062 C14.70239883 59.33647568 13.86036407 59.33506073 12.99281311 59.33360291 C10.2925365 59.32798701 7.59234157 59.31543186 4.89208984 59.30273438 C3.06591916 59.29772142 1.23974719 59.29315816 -0.58642578 59.2890625 C-5.07278558 59.27801242 -9.559084 59.26073717 -14.04541016 59.24023438 C-14.06853867 51.69525204 -14.08632784 44.15027337 -14.09722233 36.60526371 C-14.10245004 33.10214553 -14.10954566 29.59905153 -14.12084961 26.09594727 C-14.13375221 22.07242597 -14.13863927 18.04893023 -14.14306641 14.02539062 C-14.15080833 12.13011375 -14.15080833 12.13011375 -14.15870667 10.19654846 C-14.1587822 9.03542038 -14.15885773 7.8742923 -14.15893555 6.67797852 C-14.16226646 5.13576378 -14.16226646 5.13576378 -14.16566467 3.56239319 C-13.86114803 -2.3179349 -4.60264306 0.01235885 0 0 Z " fill="#FDFDFD" transform="translate(561.04541015625,395.759765625)"/>
<path d="M0 0 C1.74023438 -0.01836914 1.74023438 -0.01836914 3.515625 -0.03710938 C13.49631916 -0.05404494 21.46189934 0.11711706 28.90234375 7.26171875 C32.7439531 11.89231389 32.99851407 17.40473678 32.5 23.1875 C31.32191369 29.74279215 28.84354567 33.70834226 23.58984375 37.8125 C16.81830511 42.26779272 9.29736678 41.34827045 1.5 41.1875 C1.5 47.1275 1.5 53.0675 1.5 59.1875 C-9.33984375 59.28515625 -9.33984375 59.28515625 -12.5 59.1875 C-14.2182309 57.4692691 -13.62754321 55.20152251 -13.62939453 52.85742188 C-13.63254669 51.71954224 -13.63569885 50.5816626 -13.63894653 49.40930176 C-13.6369223 48.17079468 -13.63489807 46.9322876 -13.6328125 45.65625 C-13.63376923 44.39486206 -13.63472595 43.13347412 -13.63571167 41.8338623 C-13.63639375 39.16052862 -13.63503529 36.48728563 -13.63037109 33.81396484 C-13.62467381 30.38043309 -13.62795301 26.9469795 -13.63394356 23.51345062 C-13.63841762 20.24854757 -13.63528883 16.98365407 -13.6328125 13.71875 C-13.63483673 12.48024292 -13.63686096 11.24173584 -13.63894653 9.96569824 C-13.63579437 8.8278186 -13.63264221 7.68993896 -13.62939453 6.51757812 C-13.62859894 5.51021606 -13.62780334 4.502854 -13.62698364 3.46496582 C-13.30473834 -2.31453972 -4.37343423 0.00236658 0 0 Z M1.5 14.1875 C1.5 18.4775 1.5 22.7675 1.5 27.1875 C8.18573678 27.55466653 8.18573678 27.55466653 14.5625 26 C16.6528339 24.29661717 16.6528339 24.29661717 17.5 21.75 C17.70741 19.13185341 17.70741 19.13185341 16.25 16.9375 C13.97205672 14.65955672 12.20619252 14.21530285 9.01953125 14.08984375 C7.67955078 14.10724609 7.67955078 14.10724609 6.3125 14.125 C3.9303125 14.1559375 3.9303125 14.1559375 1.5 14.1875 Z " fill="#FCFCFC" transform="translate(289.5,395.8125)"/>
<path d="M0 0 C2.32898143 2.22201359 2.97054684 3.31521397 3.109375 6.54296875 C2.99078125 7.41566406 2.8721875 8.28835938 2.75 9.1875 C2.64171875 10.06792969 2.5334375 10.94835937 2.421875 11.85546875 C2 14 2 14 1 15 C-2.49734228 14.61140641 -5.65788261 14.11403913 -9 13 C-10.97654185 12.88046231 -12.95738456 12.82473804 -14.9375 12.8125 C-15.97777344 12.79832031 -17.01804688 12.78414063 -18.08984375 12.76953125 C-20.99770794 12.99981848 -22.5913677 13.39787807 -25 15 C-28.53768593 20.37204159 -29.58376836 26.12477171 -28.6328125 32.4375 C-27.55701427 36.47506373 -26.38346099 39.24178393 -22.8125 41.5625 C-18.91879989 43.32199628 -15.19049116 43.90118089 -11 43 C-8.36319827 41.87109406 -5.88917087 40.60597573 -3.39453125 39.19140625 C-0.91298453 37.95670519 1.27191748 37.4215687 4 37 C4.68524158 43.28138116 3.66976028 46.91254953 -0.1171875 52.01171875 C-5.00476834 57.17308524 -10.51099432 58.2310886 -17.4375 58.5 C-26.08741169 58.16731109 -32.33209988 56.14691104 -38.4375 49.875 C-45.31893601 41.32533708 -46.06101942 31.69459347 -45 21 C-43.19549378 12.58971207 -39.24389957 5.48917109 -31.98046875 0.65625 C-22.04542683 -4.6627017 -10.32197825 -4.09820766 0 0 Z " fill="#FBFBFB" transform="translate(198,398)"/>
<path d="M0 0 C12.44945483 -0.59810548 12.44945483 -0.59810548 17 3 C19.27387521 6.19602611 21.13944282 9.55163748 23 13 C24.3241303 15.33869224 25.66227803 17.66903382 27 20 C27.44653931 19.14450562 27.44653931 19.14450562 27.90209961 18.27172852 C29.2453117 15.70097638 30.59136647 13.13172348 31.9375 10.5625 C32.64036133 9.21575195 32.64036133 9.21575195 33.35742188 7.84179688 C33.80537109 6.98779297 34.25332031 6.13378906 34.71484375 5.25390625 C35.12855225 4.46314697 35.54226074 3.6723877 35.96850586 2.85766602 C37 1 37 1 38 0 C40.35313555 -0.07271741 42.70833668 -0.08370868 45.0625 -0.0625 C46.35285156 -0.05347656 47.64320313 -0.04445313 48.97265625 -0.03515625 C49.97167969 -0.02355469 50.97070312 -0.01195312 52 0 C53 3 53 3 51.78417969 5.81567383 C51.16961914 6.93482178 50.55505859 8.05396973 49.921875 9.20703125 C49.4310141 10.11155281 49.4310141 10.11155281 48.93023682 11.03434753 C47.87956022 12.96570898 46.81520491 14.88911984 45.75 16.8125 C44.70225006 18.7267792 43.6573131 20.64257423 42.61260986 22.55851746 C41.65730213 24.30682011 40.69551868 26.05157969 39.73339844 27.79614258 C38.87536621 29.382052 38.87536621 29.382052 38 31 C37.16057861 32.53019775 37.16057861 32.53019775 36.30419922 34.09130859 C34.99181079 37.01826399 34.59822679 38.96720254 34.5234375 42.14453125 C34.47703125 43.52995117 34.47703125 43.52995117 34.4296875 44.94335938 C34.41164063 45.89017578 34.39359375 46.83699219 34.375 47.8125 C34.32423409 49.71495244 34.26975528 51.61731072 34.2109375 53.51953125 C34.18459229 54.77407104 34.18459229 54.77407104 34.15771484 56.05395508 C34 58 34 58 33 59 C30.64686445 59.07271741 28.29166332 59.08370868 25.9375 59.0625 C24.64714844 59.05347656 23.35679687 59.04445313 22.02734375 59.03515625 C21.02832031 59.02355469 20.02929688 59.01195312 19 59 C19.07863281 57.77410156 19.15726562 56.54820312 19.23828125 55.28515625 C19.71691671 37.64501173 12.24740059 25.22020405 3.46289062 10.40820312 C3.00591797 9.61865234 2.54894531 8.82910156 2.078125 8.015625 C1.47339355 6.99130371 1.47339355 6.99130371 0.85644531 5.94628906 C0 4 0 4 0 0 Z " fill="#FCFCFC" transform="translate(423,396)"/>
<path d="M0 0 C5.88986463 -0.07425639 11.77945566 -0.12865268 17.66967773 -0.16479492 C19.67265572 -0.17986465 21.6756008 -0.2003241 23.6784668 -0.22631836 C26.56046681 -0.26278127 29.44202984 -0.27974461 32.32421875 -0.29296875 C33.21711105 -0.30845261 34.11000336 -0.32393646 35.029953 -0.33988953 C39.80088712 -0.34117575 43.19952077 -0.24028887 47 3 C48.16461426 6.49384279 48.13568319 9.33655389 48 13 C47.67 13.33 47.34 13.66 47 14 C41.72 14 36.44 14 31 14 C31 28.85 31 43.7 31 59 C26.05 59 21.1 59 16 59 C16 44.15 16 29.3 16 14 C10.72 14 5.44 14 0 14 C0 9.38 0 4.76 0 0 Z " fill="#FDFDFD" transform="translate(104,396)"/>
<path d="M0 0 C1.33417969 0.10248047 1.33417969 0.10248047 2.6953125 0.20703125 C3.57960938 0.26246094 4.46390625 0.31789063 5.375 0.375 C7.8203125 1.01953125 7.8203125 1.01953125 9.578125 2.8828125 C12.15123746 7.3088896 11.95022297 11.44529954 11.91796875 16.40625 C11.9165538 17.22325882 11.91513885 18.04026764 11.91368103 18.8820343 C11.90808544 21.49040393 11.89553379 24.09868759 11.8828125 26.70703125 C11.87779693 28.47591022 11.87323412 30.24479053 11.86914062 32.01367188 C11.85811746 36.34899144 11.84085588 40.68424677 11.8203125 45.01953125 C13.48320312 44.94992187 13.48320312 44.94992187 15.1796875 44.87890625 C16.64320218 44.84138023 18.10674606 44.80498096 19.5703125 44.76953125 C20.29992187 44.73601562 21.02953125 44.7025 21.78125 44.66796875 C25.08011864 44.60798932 27.42830518 44.80283155 30.3359375 46.41015625 C31.8203125 49.01953125 31.8203125 49.01953125 31.8203125 59.01953125 C20.2703125 59.01953125 8.7203125 59.01953125 -3.1796875 59.01953125 C-3.20063316 51.48141929 -3.22067124 43.94341215 -3.23143768 36.40529633 C-3.23672733 32.89526632 -3.2438007 29.3852603 -3.25512695 25.87524414 C-3.26802956 21.85172284 -3.27291662 17.82822711 -3.27734375 13.8046875 C-3.28508568 11.90941063 -3.28508568 11.90941063 -3.29298401 9.97584534 C-3.29305954 8.81471725 -3.29313507 7.65358917 -3.29321289 6.45727539 C-3.29654381 4.91506065 -3.29654381 4.91506065 -3.29994202 3.34169006 C-3.14248772 0.30118985 -3.05056524 0.02733481 0 0 Z " fill="#FDFDFD" transform="translate(394.1796875,395.98046875)"/>
</svg>
